<svg t="1672858126743" class="icon" style="width: 1.0029296875em;height: 1em;vertical-align: middle;fill: currentColor;overflow: hidden;" viewBox="0 0 1027 1024" version="1.1" xmlns="http://www.w3.org/2000/svg" p-id="2827"><path d="M1009.94018 400.885c58.088 257.675-105.298 521.312-360.359 587.345-254.948 66.004-526.389-84.313-600.888-338.005-75.502-257.107 81.015-538.11 337.226-613.959 252.43-74.73 528.98 68.106 611.341 318.711a497.426 497.426 0 0 1 12.68 45.908c59.995 266.135-59.996-266.135 0 0z" fill="#D72747" p-id="2828" data-spm-anchor-id="a313x.7781069.0.i3"></path><path d="M1009.94018 400.885c36.795 162.298-11.119 335.408-123.922 457.333-112.965 122.103-283.454 183.13-448.274 159.848C273.84218 994.781 127.82918 891.094 53.32818 743.047c-77.1-153.212-69.9-337.376 17.055-484.9C178.27318 75.106 391.77318-25.536 601.53518 12.124c199.414 35.801 364.013 190.583 408.405 388.761 7.166 31.609-3.542-15.812 0 0z m0 0c-35.518-156.332-149.1-286.777-299.289-343.087-161.776-60.655-347.969-28.122-479.276 84.116C110.79118 244.984 43.53718 405.302 61.62818 563.667c18.229 159.568 119.686 301.084 263.23 372.226 167.653 83.089 374.336 60.246 519.62-57.739 140.157-113.821 204.832-301.243 165.462-477.269-3.59-15.801 3.537 15.815 0 0z" fill="#B1DAE0" p-id="2829"></path><path d="M314.18918 743.248a33760.94 33760.94 0 0 0-30.066 18.153c-14.998 9.064-13.181 6.723-25.452-5.016-15.593-14.916-2.271-60.597 2.137-80.368 20.129 20.373 38.35 42.829 53.381 67.231-16.113 9.715-17.653-28.66 0 0z" fill="#7D9A6C" p-id="2830"></path><path d="M270.17118 773.926c-9.672-11.725-21.103-16.044-21.004-31.565 0.158-24.791 4.144-49.247 9.619-73.366 22.871 22.84 43.37 47.806 60.235 75.426-16.291 9.82-32.57 19.663-48.85 29.505z m-13.942-24.555c4.856 4.325 11.921 14.337 17.156 14.432a38527.86 38527.86 0 0 1 35.953-21.717c-13.377-21.182-29.173-40.843-46.48-58.936-4.47 21.746-7.162 43.994-6.629 66.221 5.538 4.932-0.484-20.211 0 0z" fill="#538E51" p-id="2831"></path><path d="M343.00218 807.424c3.712 13.303 9.728 22.745-3.552 29.968a1515.995 1515.995 0 0 0-38.588 21.72c3.672-33.087-8.748-64.705-29.945-89.727 33.819-20.446 67.65-40.873 101.527-61.223 13.997 29.744 26.192 60.494 34.677 92.289-21.338 2.638-42.719 4.916-64.119 6.973 2.296 8.23 20.692-1.988 0 0z" fill="#A3B48A" p-id="2832"></path><path d="M296.61718 865.633c4.654-36.947-6.898-69.098-31.025-97.119 36.099-21.822 72.211-43.624 108.37-65.346 15.276 32.334 28.536 65.619 37.577 100.264a2459.761 2459.761 0 0 1-64.089 7.076c2.092 8.162 5.959 18.884 2.412 25.242-17.947 9.606-35.668 19.617-53.245 29.883z m-20.42-95.35c18.798 23.371 30.249 52.186 28.692 82.449a1532.268 1532.268 0 0 1 39.518-22c-1.313-8.93-3.365-17.736-5.899-26.395 21.417-2.041 42.816-4.276 64.174-6.869-8.041-28.968-19.12-57.06-31.765-84.307a44118.648 44118.648 0 0 0-94.72 57.122c10.228 12.717 0 0 0 0z" fill="#538E51" p-id="2833"></path><path d="M525.84218 926.646c-2.133-54.343-19.688-107.936-39.145-158.256 15.604-6.031 31.359-11.68 47.277-16.828-3.115 53.329 47.346 78.475 75.041 118.16 40.625 55.081-46.095 57.941-83.173 56.924-0.491-12.515 74.045 2.03 0 0z" fill="#AFB778" p-id="2834"></path><path d="M540.37818 930.355c-9.417 0-13.978 1.137-18.033-3.572-0.729-18.596-3.544-37.08-7.416-55.265-7.654-35.955-19.479-70.901-32.757-105.13 18.345-7.113 36.864-13.712 55.597-19.73-3.975 52.762 38.271 75.436 68.965 114.186 6.242 8.083 14.061 17.825 16.385 28.111 12.62 41.958-59.382 41.4-82.741 41.4-4.65 0 41.967 0 0 0z m-11.189-7.126c17.465 0.381 96.54 4.918 87.644-30.668-2.141-9.455-8.473-18.196-14.293-25.705-27.128-35.847-73.08-61.193-72.247-110.406-13.133 4.339-26.154 9.013-39.072 13.953 18.649 48.734 35.215 100.353 37.968 152.826 3.853 0.084-0.599-11.411 0 0z" fill="#538E51" p-id="2835"></path><path d="M538.75018 786.059a52.524 52.524 0 0 1-1.582-4.383 57.787 57.787 0 0 0 1.582 4.383z" fill="#6A5F2A" p-id="2836"></path><path d="M535.51318 787.391a56.995 56.995 0 0 0-1.687-4.674c7.04-1.676 3.871-3.043 8.157 2.004l-6.47 2.67c-0.003-0.006 0 0 0 0z" fill="#538E51" p-id="2837"></path><path d="M336.54818 589.443c-24.36 28.551-49.482 56.456-75.124 83.859 7.831-34.159 18.555-68.649 31.724-101.137 10.339 14.947 25.782 14.888 43.4 17.278-6.09 7.139-12.39-1.681 0 0z" fill="#729059" p-id="2838"></path><path d="M255.11218 685.17c9.196-40.904 21.341-81.501 37.227-120.322 5.796 8.343 7.783 14.227 18.363 16.522 10.802 2.345 21.717 4.028 32.672 5.466-28.571 33.544-58.136 66.185-88.262 98.334z m38.872-105.611c-10.25 26.493-18.807 54.028-25.962 81.521 20.987-22.654 41.613-45.652 61.732-69.082-12.932-1.985-28.074-1.194-35.77-12.439-0.19 0.492 1.08 1.578 0 0z" fill="#538E51" p-id="2839"></path><path d="M571.76118 589.904c-66.822 38.766-133.09 78.488-199.317 118.258-13.523-28.762-28.843-56.672-45.364-83.815a1031.734 1031.734 0 0 0-8.649-13.96 2036.852 2036.852 0 0 0 18.117-20.943c15.827 2.166 31.784 3.333 47.75 3.758 34.938 0.931 69.931-1.595 104.555-6.189 16.892-2.242 33.718-4.987 50.457-8.17a1005.817 1005.817 0 0 0 18.842-3.773c13.4-2.818 11.074 3.07 13.609 14.834-13.369 7.756-1.119-5.193 0 0z" fill="#548156" p-id="2840"></path><path d="M370.92418 713.156c-11.775-25.252-24.861-49.87-38.986-73.884-18.731-31.845-21.093-25.114 2.568-52.83 4.376-5.126 59.686 3.506 69.124 3.421 35.107-0.313 70.162-3.796 104.828-9.227 13.906-2.168 52.829-15.882 61.927-8.697 0.89 2.419 7.833 18.265 4.233 20.354a8683.567 8683.567 0 0 0-43.95 25.688c-53.415 31.444-106.587 63.297-159.744 95.175zM322.78218 610.73c18.719 29.848 36.016 60.63 51.173 92.443 37.16-22.312 74.356-44.565 111.634-66.68a12310.994 12310.994 0 0 1 50.408-29.763 8443.38 8443.38 0 0 1 24.339-14.233c11.135-6.484 8.655-16.088-4.898-13.29-40.989 8.463-82.574 14.541-124.39 16.785-17.854 0.958-35.756 1.197-53.624 0.478-10.001-0.403-19.993-1.106-29.946-2.172-13.685-1.464-16.079 6.58-24.696 16.432 19.701 31.415 5.106-5.837 0 0z" fill="#538E51" p-id="2841"></path><path d="M423.69818 477.344l7.098 7.896c-27.512-5.243-54.954-11.206-81.829-19.139 15.569-21.567 47.499-59.166 75.822-33.796 4.644 4.154 9.547 8.038 14.743 11.48 7.979 5.325-11.04 26.489-15.834 33.559 2.338 2.576 7.195-10.612 0 0z" fill="#01502B" p-id="2842"></path><path d="M440.26118 490.61c-32.645-6.204-65.171-12.995-97.024-22.55 22.783-31.925 52.485-63.141 89.556-33.55 2.914 2.347 16.071 9.588 14.581 12.104a607.333 607.333 0 0 1-14.252 22.898c-7.083 10.829-0.21 12.824 7.139 21.098z m-85.499-26.472c21.868 6.23 44.124 11.416 66.457 15.682-9.406-10.129 27.388-24.42 11.355-36.641-10.924-8.076-20.023-18.878-35.082-15.037-18.01 4.595-32.096 21.879-42.73 35.996 18.715 5.332 9.819-13.036 0 0z" fill="#538E51" p-id="2843"></path><path d="M573.66718 636.258c-5.363 11.424-10.811 22.792-16.017 34.287-8.12-19.234-17.979-37.714-28.757-55.58a8304.312 8304.312 0 0 1 42.868-25.061c0.804 3.769 1.771 21.235 8.428 21.35 6.309 0.098-5.912 23.706-6.522 25.004-2.255 4.803 7.166-15.246 0 0z" fill="#6C7A4C" p-id="2844"></path><path d="M557.53518 679.271c-9.472-22.72-20.649-44.508-33.466-65.529a8523.844 8523.844 0 0 1 50.108-29.285c5.314 25.62 14.731 27.603 2.656 53.289-6.49 13.824-12.988 27.619-19.298 41.525z m-23.826-63.078c8.801 14.8 16.942 30.017 24.001 45.729 4.865-10.592 10.025-21.045 14.878-31.642 7.786-17.003 0.208-17.58-3.275-34.905a8309.037 8309.037 0 0 0-35.604 20.818c9.402 15.813 13.083-7.687 0 0z" fill="#538E51" p-id="2845"></path><path d="M604.81618 801.291c0.148 17.637-2.25 35.526-9.03 51.91-5.084-5.816-10.356-11.467-15.666-17.078 2.687-11.227 3.457-22.85 2.97-34.36-0.861-20.365-5.512-40.476-11.896-59.772-5.307-16.042-11.891-31.668-19.437-46.782-4.985-9.988 7.554-28.578 12.22-38.481a486.04 486.04 0 0 1 16.997 38.275c0 8.011-3.715 19.526 2.782 26.137 2.201 2.068 4.792 3.353 7.773 3.852 2.745 9.006 5.221 18.096 7.261 27.288 3.57 16.081 5.89 32.516 6.026 49.011 0.153 18.186-0.085-10.334 0 0z" fill="#F1D17E" p-id="2846"></path><path d="M608.31618 801.279c0.168 20.276-3.442 39.803-11.451 58.471-3.828-4.424-21.462-18.793-20.364-23.515 2.337-10.061 6.744-14.522 6.725-28.339-0.037-25.293-6.302-50.391-14.851-74.052-3.348-9.265-9.528-39.45-22.144-41.8-0.043-8.688 12.24-31.861 17.653-43.385 7.536 15.069 15.183 30.455 20.59 46.357-0.212 5.281-3.351 18.355 1.696 23.582 4.926 5.236 6.219 1.062 8.708 5.371 7.645 25.068 13.172 51.011 13.438 77.31 0.037 4.469 0 0 0 0z m-7 0.041c-0.221-25.604-5.69-50.913-13.133-75.309l2.663 2.412c-16.166-3.154-15.654-24.928-13.131-32.143a487.032 487.032 0 0 0-16.873-38l6.301-0.064c-5.158 11.032-10.101 22.163-14.557 33.496l-0.151-2.881c-2.692 5.995 2.962 13.781 5.185 18.672 7.85 17.257 14.481 35.135 19.152 53.521 4.65 18.337 7.429 37.404 6.145 56.352-0.609 9.028-2.617 11.581 0.607 19.561l-0.861-3.221c5.339 5.646 10.642 11.331 15.758 17.182l-5.868 0.965c6.587-15.923 8.95-33.457 8.763-50.543-0.055-6.351 0 0 0 0z" fill="#538E51" p-id="2847"></path><path d="M580.12018 836.123c-17.924-18.911-40.489-36.625-45.164-63.588-4.714-28.641 5.749-55.394 14.377-82.098 22.231 42.936 42.462 96.89 30.787 145.686-11.703-12.348 12.572-52.543 0 0z" fill="#DFC175" p-id="2848"></path><path d="M577.58118 838.531c-14.314-15.112-34.361-31.771-41.84-50.621-0.895-2.433-2.613-7.235-3.417-11.063 0 0.359 0.058 0.707 0.172 1.043a86.074 86.074 0 0 1-1.874-11.811c-2.441-28.082 7.882-57.536 18.246-84.168 5.013 5.746 1.846 10.804 4.717 17.01 8.277 17.058 15.374 34.746 20.689 52.956 5.303 18.166 8.923 37.041 8.951 56.021 0.01 6.69-6.009 23.941 0.299 29.038-1.981 0.533-3.962 1.064-5.943 1.595-7.434-7.847 0 0 0 0z m3.436-6.552c5.615-22.736 1.404-48.674-4.243-70.949-4.495-17.688-13.049-60.619-30.55-68.982l6.437-0.523c-9.041 23.115-17.004 49.006-15.093 73.713 1.088 9.657 1.316 11.375 4.555 19.885a2.342 2.342 0 0 0-0.141-0.383c7.574 18.754 25.517 33.024 39.035 47.239 0.04-0.163-6.93-7.288 0 0z" fill="#538E51" p-id="2849"></path><path d="M538.75018 786.059a52.524 52.524 0 0 1-1.582-4.383 57.787 57.787 0 0 0 1.582 4.383z" fill="#DFD38E" p-id="2850"></path><path d="M535.51318 787.391a56.995 56.995 0 0 0-1.687-4.674c7.04-1.676 3.871-3.043 8.157 2.004l-6.47 2.67c-0.003-0.006 0 0 0 0z" fill="#538E51" p-id="2851"></path><path d="M758.14318 828.324c-6.806 11.974-17.479 23.427-10.905 38.164 3.679 8.234 9.143 19.288 3.206 29.037-14.019 23.038-50.151 7.248-71.197 3.534-16.201-2.859-32.607-5.25-49.107-4.136-12.824 0.867-8.071-0.547-12.191-9.926-3.352-7.991-8.664-15.197-13.959-21.98 24.157-6.973 53.298-14.585 78.281-7.539 12.576 3.547 11.74-0.159 12.864-15.531 1.465-20.035 8.285-38.79 30.617-42.636 17.819-3.067 33.043 13.57 32.391 31.013-5.88 10.346 0.351-9.381 0 0z" fill="#CEDEBD" p-id="2852"></path><path d="M727.81218 911.496c-32.858 0-64.036-15.521-98.036-13.035-14.366 1.05-11.184-3.309-15.752-13.646-3.024-6.741-7.615-12.991-12.121-18.778-7.104-9.124 29.931-13.272 34.999-14.118 14.551-2.428 39.513-6.784 52.576 2.969 8.745-16.844-0.837-36.248 15.369-51.352 21.088-19.652 51.265-8.343 56.304 19.323 1.576 8.651-3.966 12.894-8.118 20.099-2.774 4.326-4.249 9.056-4.425 14.188 0.118 6.655 9.062 13.547 7.676 18.946-4.496 17.685-2.566 35.834-28.472 35.404-8.255 0 0 0 0 0z m-34.785-14.117c30.058 0 50.523 19.995 56.147-21.17-14.144-17.853-4.26-32.436 5.471-48.83-0.509-14.397-11.775-28.799-27.182-26.781-16.614 2.176-25.626 14.689-27.898 30.325-1.024 7.046 1.15 32.013-10.355 32.013-2.313 0.587-18.567-5.987-21.444-6.248-19.102-1.732-39.542 3.405-57.848 8.313 5.356 7.157 10.501 15.035 13.115 23.672 5.42 4.82 15.678 2.204 25.011 2.759 14.978 0.89 30.068 5.947 44.983 5.947 3.523 0-0.186 0 0 0z" fill="#1A733C" p-id="2853"></path><path d="M720.55418 776.805c-4.324 22.132-28.444 15.234-44.388 15.499-23.739 0.395-48.279 3.309-71.351 8.987-0.086-10.455-1.062-20.894-2.66-31.221 7.57-2.602 15.212-5.013 22.931-7.137 3.586-0.987 43.359-8.038 43.458-6.062-0.289-5.779-7.964-13.056-8.865-20.511-1.536-12.71 0.657-26.981 12.585-34.112 14.639-8.752 40.835-8.208 47.99 9.868 8.893 22.467-11.914 40.05 0.3 64.689-1.961 10.037-12.978-26.18 0 0z" fill="#CEDEBD" p-id="2854"></path><path d="M604.81618 804.791c-6.682 0-4.313-19.871-4.721-23.608-1.627-14.915-0.092-14.317 13.278-18.468 15.606-4.844 33.575-11.022 50.074-7.969-19.173-23.831-3.821-59.041 26.77-60.982 32.857-2.087 39.546 23.797 30.23 49.438-4.849 13.345 5.702 23.129 3.542 34.274-2.961 15.159-17.84 21.609-32.051 19.127-29.787-5.165-58.132 8.188-87.122 8.188-0.77 0 0.279 0 0 0z m1.232-32.346c1.157 8.107 1.924 16.276 2.182 24.463 18.219-3.99 36.945-6.357 55.546-7.574 12.897-0.845 36.862 5.542 47.475-3.186 11.153-9.172-2.557-27.582 1.293-41.275 3.707-13.183 12.354-27.862-0.806-39.191-9.871-8.498-30.05-6.41-39.834 1.039-12.55 9.555-8.836 25.73-7.063 38.945 12.444 14.906 4.945 15.205-8.921 15.205-16.773 0-34.153 6.296-49.872 11.574 1.205 8.436 12.214-4.101 0 0z" fill="#1A733C" p-id="2855"></path><path d="M785.48618 303.941c-26.203-2.728-53.618 2.729-20.917 27.02-8.828 8.304-18.949 14.606-29.371 20.687-13.155 7.676-12.077 10.252-21.609 0.994-11.714-11.376-31.277-11.963-46.49-10.384-8.609 0.893-25.202 2.354-30.909 10.25-8.988 12.446 4.656 37.595-14.537 34.313-31.153-5.329-61.473-17.997-93.527-17.212-40.687 0.995-48.313 58.381-55.231 89.776-13.574-4.184-26.858-10.343-38.192-18.983-13.574-10.042-18.203-12.611-15.294-29.192 2.314-13.19 5.191-26.283 8.411-39.28 18.076-72.974 46.252-148.438 94.802-206.858 46.736-56.237 144.019-106.63 214.726-65.355 67.059 39.143 83.393 139.398 48.138 204.224-13.049-1.358 25.171-46.284 0 0z" fill="#CEDEBD" p-id="2856"></path><path d="M475.49418 463.846c-11.85-3.501-23.243-8.12-33.825-14.532-9.188-5.555-16.771-14.524-26.229-19.302-3.888-7.111 0.684-20.708 2.49-29.806 19.016-95.818 57.844-209.353 137.46-272.277 75.481-59.656 188.68-67.275 235.165 28.346 19.956 41.051 22.103 89.282 5.849 132.188-10.042 26.509-10.454 15.593-36.193 18.359-20.324 2.184 1.913 18.36 9.803 23.821-15.157 14.849-34.019 25.01-52.585 34.938-8.861-26.738-50.87-22.813-71.262-15.131-22.255 8.384 2.48 43.894-23.188 40.122-30.014-4.41-86.47-32.399-114.887-12.481-20.78 14.567-27.638 62.625-32.598 85.755z m-54.699-38.866c17.202 10.35 30.103 23.226 49.527 29.882 5.784-25.205 14.251-78.943 43.366-86.882 38.414-10.475 76.411 14.182 114.025 16.069 0.042-10.676-1.366-29.92 9.262-36.809 13.564-8.792 33.844-10.103 49.434-8.668 12.854 1.183 27.151 5.59 34.204 17.322 13.316-7.318 26.997-14.695 38.511-24.725-8.994-7.27-24.928-25.69-4.978-30.44 9.449-2.25 19.786-1.389 29.351-0.5 5.684-10.935 9.714-22.684 12.362-34.706 8.044-36.519 4.581-73.215-11.872-106.714-40.233-81.917-124.529-80.982-197.781-42.703-102.046 53.326-151.008 201.718-165.411 308.874 2.147 1.292 7.497-55.773 0 0z" fill="#1A733C" p-id="2857"></path><path d="M785.48618 303.941c-5.457 10.069-12.555 19.197-20.917 27.02-5.948-4.418-16.618-12.037-17.08-20.454-0.644-11.671 31.934-7.197 37.997-6.566-5.167 9.533-13.049-1.358 0 0z" fill="#D9322F" p-id="2858"></path><path d="M764.82818 335.512c-6.908-4.858-28.399-20.462-18.613-30.813 9.487-10.025 32.957-5.134 44.846-3.696-6.833 12.98-15.302 24.653-26.233 34.509z m3.451-29.066c-0.87 0-17.537-0.42-17.295 3.868 0.34 6.201 9.261 12.828 13.325 16.039a103.02 103.02 0 0 0 15.414-19.422 151.229 151.229 0 0 0-11.444-0.485c-13.063 0 3.925 0 0 0z" fill="#1A733C" p-id="2859"></path><path d="M717.38918 391.707c-12.574 34.13-26.353 69.727-52.738 95.74-29.92 29.496-66.72 53.608-101.149 77.411-5.246-10.318-13.331-18.826-22.106-26.234 20.719-16.274 40.998-33.313 59.772-51.814 9.505-9.366 19.162-19.22 26.283-30.585 9.099-14.52 4.938-33.04 4.296-49.296-1.411-35.792-4.642-60.521 35.352-64.671 33.162-3.443 64.385 11.159 50.29 49.449-24.5 66.5 4.943-13.426 0 0z" fill="#CEDEBD" p-id="2860"></path><path d="M562.19718 570.016c-5.938-12.769-15.6-22.604-26.343-31.49 35.599-27.794 94.878-64.121 93.089-114.195-0.629-17.604-10.267-65.23 8.032-77.091 19.985-12.954 61.18-14.7 79.187 3.022 21.921 21.575-2.313 62.328-12.432 84.425-8.185 17.873-17.804 35.204-31.23 49.703-31.16 33.65-72.803 59.781-110.303 85.626z m-15.319-31.262c6.846 6.142 13.184 13.025 17.833 21.006 36.835-25.644 80.354-51.711 108.774-87.262 19.68-24.616 73.047-112.39 22.195-125.289-13.567-3.441-53.22-5.888-58.539 11.484-7.982 26.065-0.263 57.547-0.954 84.205-0.443 16.999-20.396 34.313-31.314 45.21-18.164 18.128-37.895 34.715-57.995 50.646 7.174 6.435 29.148-23.102 0 0z" fill="#1A733C" p-id="2861"></path><path d="M630.12718 697.174c-3.229 15.496-38.29 46.336-48.911 20.038-3.795-9.396 0.635-21.605-1.745-31.899-2.087-9.027-5.618-17.723-9.679-26.024-5.008-10.238-0.785-13.104 3.875-23.03 14.511 10.517 60.894 39.543 56.46 60.915-3.738 17.931 3.724-17.949 0 0z" fill="#CEDEBD" p-id="2862"></path><path d="M597.71218 729.041c-27.343 0-17.491-24.48-21.538-42.462-2.578-11.458-7.513-22.457-13.138-32.722-0.442-7.158 5.945-15.838 9.246-22.889 17.965 12.681 36.052 26.488 50.346 43.307 18.736 22.043 6.359 54.766-24.916 54.766-2.57 0 1.381 0 0 0z m-13.243-34.199c0.838 11.845-5.009 26.6 11.919 27.18 12.311 0.423 22.73-6.794 27.843-17.985 10.745-23.525-33.815-51.163-49.202-62.468-8.271 17.433 7.864 33.851 9.44 53.273 0.245 3.465 0 0 0 0z" fill="#1A733C" p-id="2863"></path><path d="M502.57418 470.82c-6.077-4.563-13.739-6.649-20.889-8.774-13.397-3.981-7.699-8.265-4.591-20.038 9.935 6.837 22.532 16.369 25.48 28.812-7.253-5.445-2.786-11.759 0 0z" fill="#393332" p-id="2864"></path><path d="M508.21118 479.429c-10.916-9.043-23.031-12.478-36.375-16.711-4.889-5.951 0.659-17.121 3.145-26.414 16.354 10.79 29.643 23.23 33.23 43.125z m-31.197-22.431c5.882 1.788 11.854 3.357 17.583 5.614-4.226-5.726-9.729-10.53-15.39-14.777l-2.193 9.163c1.562 0.474 0.701-3.078 0 0z" fill="#538E51" p-id="2865"></path><path d="M313.01318 874.775c-8.833-1.753-88.656-20.483-87.293-22.879 3.691-6.486 33.555-5.24 39.848-5.951 16.014-1.81 15.594-2.097 26.226 9.584 6.435 7.07 13.582 13.5 21.219 19.246-4.508-0.894-4.577-3.443 0 0z" fill="#7FAB90" p-id="2866"></path><path d="M327.36818 881.197c-23.632-4.696-47.282-9.352-70.727-14.925-9.275-2.205-25.295-3.571-32.858-10.487-9.219-8.404 54.214-18.578 59.884-15.916 6.303 2.96 13.318 16.456 18.901 21.574 7.712 7.248 16.359 13.402 24.8 19.754z m-93.448-28.285c21.341 7.141 44.022 11.315 66.049 15.652-7.109-6.398-13.634-13.441-19.393-21.082-15.478 2.459-31.176 3.053-46.656 5.43 6.527 2.184 4.834-0.742 0 0z" fill="#1A733C" p-id="2867"></path><path d="M344.62618 893.83c-17.416-8.368-33.478-19.142-47.362-32.605 16.729-9.948 33.79-19.376 50.947-28.561 2.718 20.404 1.681 41.24-3.585 61.166-11.914-5.725 5.516-20.873 0 0z" fill="#C5CFA5" p-id="2868"></path><path d="M346.92618 898.82c-20.619-9.771-39.156-22.149-55.36-38.246 19.438-11.769 39.409-22.677 59.447-33.381 3.432 24.235 2.376 47.979-4.087 71.627z m-43.881-36.929c11.651 10.841 25.058 19.7 39.232 26.879 3.86-16.546 4.786-33.698 3.059-50.588a1516.756 1516.756 0 0 0-42.291 23.709c3.75 3.488 13.916-8.096 0 0z" fill="#538E51" p-id="2869"></path><path d="M525.84218 926.646c-37.267-1.021-75.454-3.611-112.057-10.906 8.678-37.648 3.719-78.482-6.665-115.289a1448.25 1448.25 0 0 0 48.163-6.674c9.749-1.52 19.48-3.155 29.18-4.963 14.687-2.737 12.287 6.479 16.451 18.994 12.737 38.287 23.339 78.327 24.928 118.838-20.972-0.574-0.491-12.515 0 0z" fill="#D0D99C" p-id="2870"></path><path d="M529.48618 930.248c-39.948-0.959-80.708-3.814-119.921-11.777 9.741-39.756 4.225-82.13-6.919-121.004 19.469-2.339 38.904-5.003 58.263-8.128 10.878-1.756 28.461-8.179 36.063-3.495 16.783 46.233 30.988 94.928 32.514 144.404z m-107.05-16.48c32.803 5.6 66.49 8.151 99.732 9.266-1.926-35.206-10.557-69.949-21.125-103.46a771.671 771.671 0 0 0-9.632-28.521 899.51 899.51 0 0 1-26.071 4.656c-17.885 2.941-35.84 5.45-53.821 7.723 9.09 35.425 13.911 73.354 6.453 109.547l4.464 0.789s-1.551-0.264 0 0z" fill="#538E51" p-id="2871"></path><path d="M557.65018 670.545c-7.236 16.49-14.051 33.302-18.537 50.777-2.173 7.915-3.846 16.265-4.646 24.459-1.273 11.66-36.35 18.196-47.769 22.609a910.052 910.052 0 0 1 6.985 18.648c-16.094 3.204-32.292 5.877-48.525 8.275-14.997 2.216-35.934 11.94-40.665-4.261-4.619-15.821-10.126-31.378-16.251-46.677a653.598 653.598 0 0 0-11.679-27.305c-6.237-13.732 1.426-12.243 12.836-19.087 32.207-19.319 64.445-38.586 96.744-57.751a14526.718 14526.718 0 0 1 42.749-25.27c10.779 17.869 20.638 36.349 28.758 55.583-0.952 2.17-7.784-18.44 0 0z" fill="#7D9A6C" p-id="2872"></path><path d="M404.52318 804.291c-5.876-22.459-13.58-44.396-22.476-65.83-2.802-6.75-15.084-24.782-14.118-31.672 0.541-3.854 24.123-14.475 27.98-16.787 14.422-8.646 133.123-81.583 135.087-78.328 8.111 13.441 31 42.723 30.463 58.896-0.365 10.996-12.301 29.778-15.652 40.229-3.67 11.462-6.683 23.324-7.857 35.322-1.867 17.202-31.899 18.61-46.729 24.281a984.542 984.542 0 0 1 7.14 19.273c-31.037 6.272-62.413 10.807-93.838 14.616z m-27.571-94.754c11.893 25.559 22.398 51.84 30.415 78.884 4.375 14.762 23.655 5.441 37.146 3.448 14.873-2.197 29.716-4.625 44.479-7.479a1006.157 1006.157 0 0 0-6.82-18.002c9.057-3.526 47.888-12.525 48.815-20.986 1.103-11.395 3.787-22.775 7.209-33.68 3.068-10.227 8.735-20.289 11.123-30.629 8.235-19.751-11.196-43.781-21.644-61.352-50.388 29.685-100.584 59.694-150.723 89.796 14.309 30.752 25.495-15.307 0 0z" fill="#538E51" p-id="2873"></path><path d="M372.44418 708.162a34048.775 34048.775 0 0 0-58.255 35.086c-11.252-18.268-24.318-35.402-38.569-51.427-15.066-16.941-18.731-13.534-2.823-30.748a2567.237 2567.237 0 0 0 45.634-50.687c19.865 31.505 38.161 64.062 54.013 97.776-20.65 12.404-17.417-37.043 0 0z" fill="#89A26F" p-id="2874"></path><path d="M313.02918 748.035c-15.968-26.081-35.142-49.964-56.744-71.589-2.714-2.717 55.709-64.013 62.604-71.896 20.823 32.938 40.134 66.841 56.723 102.123-2.452 13.489-48.376 32.789-62.583 41.362z m-48.359-73.078c11.798 12.059 22.883 24.83 33.097 38.258 6.21 8.163 12.094 16.578 17.568 25.254a50519.73 50519.73 0 0 1 25.458-15.35c9.042-5.446 18.085-10.89 27.133-16.326a802.3 802.3 0 0 0-13.308-26.682c-11.359-21.772-23.648-43.056-36.653-63.885a2616.423 2616.423 0 0 1-53.295 58.731c14.106 14.418 18.315-19.588 0 0z" fill="#538E51" p-id="2875"></path><path d="M413.78618 915.74c-23.776-4.572-47.295-11.392-69.16-21.91 7.498-28.369 6.229-58.267-1.624-86.406a2574.112 2574.112 0 0 0 42.481-4.418c24.294-2.74 22.295-3.444 27.141 21.021 5.951 30.049 8.096 61.629 1.162 91.713-27.16-5.222 7.98-34.621 0 0z" fill="#D5DEC4" p-id="2876"></path><path d="M416.43818 919.814c-14.931-2.765-67.679-9.542-75.935-24.084-2.832-4.987 5.72-34.587 5.67-42.222-0.108-16.689-2.976-33.187-7.667-49.171 12.327-1.175 69.586-14.326 72.566-2.621 10.012 38.296 14.863 79.194 5.366 118.098z m-67.71-27.916c19.828 9.206 40.977 15.424 62.37 19.746 5.267-25.484 4.06-51.99-0.196-77.524-2.16-12.962-0.12-30.539-15.316-28.755a2458.048 2458.048 0 0 1-48.137 5.143c6.815 26.587 7.81 54.636 1.279 81.39 18.093 8.401 4.682-19.179 0 0z" fill="#538E51" p-id="2877"></path><path d="M375.13118 542.752a2187.03 2187.03 0 0 1 28.532 50.611c-25.532 0.236-51.139-1.208-76.361-5.295-10.81-1.752-24.338-1.586-30.754-10.959-5.941-8.681 2.75-19.863 6.809-28.904 10.26-22.852 21.673-45.3 35.081-66.479 10.608-16.775 11.214-15.116 29.93-10.267 17.002 4.405 34.161 8.195 51.381 11.64-14.132 20.422-29.148 40.228-44.618 59.653 9.101 15.666 15.876-19.936 0 0z" fill="#28653E" p-id="2878"></path><path d="M398.43418 596.887c-17.558 0-35.13-0.825-52.583-2.766-11.886-1.321-38.006-1.191-47.765-8.541-17.363-13.076-0.927-32.483 5.838-47.039 6.571-14.138 13.622-28.062 21.329-41.616 3.805-6.691 14.852-32.495 22.325-34.882 6.705-2.141 27.703 7.596 34.861 9.315 14.335 3.442 28.761 6.482 43.22 9.354-12.86 18.637-26.304 36.845-40.257 54.679-9.41 12.028 1.063 19.933 7.971 32.202a2455.495 2455.495 0 0 1 16.16 29.216c-3.699 0.042-7.4 0.078-11.099 0.078-22.104 0 1.752 0 0 0z m-96.058-17.448c31.129 7.695 63.391 10.406 95.393 10.447-3.339-6.074-29.309-44.374-26.12-48.381 14.561-18.294 28.752-36.89 42.181-56.034-15.803-3.234-31.549-6.776-47.161-10.84-10.497-2.732-14.158-7.864-20.799 2.08-5.049 7.559-9.777 15.332-14.279 23.228-9.796 17.184-41.191 61.908-29.215 79.5 10.926 2.702-1.862-2.734 0 0z" fill="#538E51" p-id="2879"></path><path d="M567.09918 573.146c-50.112 10.994-101.244 18.608-152.583 20.019-16.459 0.452-17.875-12.665-25.381-25.964-7.501-13.287-17.435-20.004-7.243-33.005 8.821-11.253 17.471-22.643 25.875-34.211 8.601-11.839 8.559-17.502 23.029-14.744-11.473-12.881 4.605-25.278 12.685-38.921 3.791 2.295 7.692 4.367 11.689 6.272 11.091 5.176 22.894 8.002 34.443 11.926 22.283 7.571 25.928 26.251 25.204 47.574-0.422 12.424 8.712 12.891 18.637 20.255 14.492 10.755 27.299 23.596 33.645 40.799-17.555 3.852-1.022-2.771 0 0z" fill="#546C3A" p-id="2880"></path><path d="M401.59618 596.881c-7.661-14.061-30.51-41.97-29.203-56.311 7.135-8.958 39.309-62.605 48.826-60.75-5.048-5.437 17.011-31.439 21.049-38.323 15.227 9.54 30.983 13.854 47.961 19.537 11.571 3.873 21.024 10.141 25.082 22.105 3.405 10.042-0.624 32.685 7.046 37.441 21.924 13.592 40.678 30.362 49.417 55.125-55.859 12.33-112.878 20.826-170.178 21.176z m-22.238-53.82a2197.186 2197.186 0 0 1 26.368 46.779c16.559-0.208 33.105-1.133 49.598-2.61 35.971-3.223 71.699-9.033 106.996-16.626-6.336-14.753-18.178-25.96-30.877-35.387-4.119-3.058-18.131-8.601-20.708-13.271-2.42-4.387 1.005-17.479 0.407-23-0.903-12.44-4.644-23.279-16.509-28.712-12.545-5.745-26.616-7.551-39.076-13.617a120.974 120.974 0 0 1-10.857-5.512c-5.29 8.787-10.843 17.415-16.565 25.925 4.067 4.504 8.097 9.043 12.127 13.58-11.142-2.113-16.727-6.664-24.244 3.896-11.763 16.523-24.052 32.669-36.66 48.555 9.153 15.794 15.771-19.872 0 0z" fill="#538E51" p-id="2881"></path><path d="M300.86218 859.111c-9.753 5.71-28.099-29.456-32.008-37.573-10.575-21.959-15.347-46.292-16.083-70.55 31.104 27.226 52.796 65.72 48.091 108.123-1.218 0.713 1.945-17.529 0 0z" fill="#BCDCBB" p-id="2882"></path><path d="M296.72918 865.615c-33.968-32.713-46.659-76.464-47.7-122.555 19.488 16.771 36.818 35.911 46.952 59.87 5.507 13.02 20.892 55.977 0.748 62.685z m-40.035-106.273c2.541 36.156 15.389 70.985 40.904 97.25 3.407-37.426-14.486-71.802-40.904-97.25 0.453 6.449 4.124 3.972 0 0z" fill="#538E51" p-id="2883"></path><path d="M708.98818 176.135c0 11.085-20.203 11.085-20.203 0 0-11.086 20.203-11.086 20.203 0 0 4.619 0-4.62 0 0z" fill="#231815" p-id="2884"></path><path d="M580.80318 696.535c-11.22 0 9.1-16.685 16.117-16.957 10.509-0.528-14.013 16.957-16.117 16.957-0.067 0 1.843 0 0 0z" fill="#1A733C" p-id="2885"></path><path d="M687.21018 421.042c5.423 35.482-40.775 73.565-67.2 88.666 22.553-24.471 61.121-53.747 67.2-88.666 0.365 2.39-0.411 2.357 0 0zM591.89318 711.074c12.022 3.965 20.365-8.4 29.121-13.949-1.275 10.266-22.45 31.785-29.121 13.949 3.222 1.063 1.215 3.248 0 0zM719.29418 810.65c-3.414 0.272-21.232 51.843-15.838 58.799-11.941-2.589 2.333-66.263 15.838-58.799-1.421 0.114-0.612-0.337 0 0z" fill="#FFFFFF" p-id="2886"></path><path d="M622.61418 157.375c-11.996 26.365-37.166 21.405-54.952 4.313 7.21 23.127 0.771 47.861-27.603 47.715-30.543-0.158-30.252-29.3-21.083-50.931-23.516 21.715-49.431 15.327-55.496-18.194-5.179-28.625 21.278-34.114 43.511-29.103-23.775-17.434-28.568-50.065 5.432-60.599 21.075-6.529 32.201 18.063 35.847 34.585 4.855-21.985 20.762-45.429 44.504-27.42 26.758 20.296 24.376 47.561-7.009 58.639 24.117 0.547 49.567 13.044 36.849 40.995-18.632 40.95 18.633-40.951 0 0z" fill="#DE74A2" p-id="2887"></path><path d="M540.37018 212.903c-26.92 0.679-34.472-21.942-28.485-44.517-50.268 32.432-77.862-66.53-16.077-62.36-38.022-39.57 31.772-87.964 52.466-33.129 23.058-60.859 99.262 12.032 50.384 41.284 56.85 10.393 21.471 89.801-25.279 56.755 3.601 23.679-8.223 41.965-33.009 41.967 0 0 12.929-0.001 0 0z m-10.766-69.6c-9.052 20.212-27.531 62.397 10.473 62.599 35.584 0.906 26.834-35.489 19.447-57.394 19.095 19.26 54.242 41.675 62.887-1.451 6.09-30.383-40.119-27.186-58.549-27.227 26.005-8.467 64.939-23.421 32.365-54.517-31.838-30.408-43.012 12.984-47.968 37.691-3.472-17.404-9.748-58.902-36.564-48.468-43.338 16.862-9.329 49.139 12.744 64.552-19.932-4.923-62.911-16.165-57.796 18.868 6.939 47.523 40.91 26.706 62.961 5.347z" fill="#AE68A0" p-id="2888"></path><path d="M565.70018 125.902c0 25.317-39.256 25.317-39.256 0 0-25.315 39.256-25.315 39.256 0 0 10.842 0-10.839 0 0z" fill="#F6EE7D" p-id="2889"></path></svg>