<svg t="1672858773543" class="icon" style="width: 1em;height: 1em;vertical-align: middle;fill: currentColor;overflow: hidden;" viewBox="0 0 1024 1024" version="1.1" xmlns="http://www.w3.org/2000/svg" p-id="11347"><path d="M512 512m-512 0a512 512 0 1 0 1024 0 512 512 0 1 0-1024 0Z" fill="#3AD0F9" p-id="11348"></path><path d="M592 808c-1.6 0-3.2-0.8-4.8-1.6-46.4-34.4-44-96-44-99.2 0-4.8 4-8 8-8s7.2 4 7.2 8c0 0.8-1.6 56 37.6 84.8 3.2 2.4 4 7.2 1.6 11.2-0.8 4-3.2 4.8-5.6 4.8zM672 792h-2.4c-57.6-15.2-76.8-74.4-77.6-76.8-1.6-4 0.8-8.8 5.6-9.6 4-1.6 8.8 0.8 10.4 4.8 0 0.8 17.6 52.8 66.4 66.4 4 0.8 7.2 5.6 5.6 9.6-1.6 3.2-4.8 5.6-8 5.6z" fill="#663210" p-id="11349"></path><path d="M198.4 448.8c1.6 12.8-7.2 20.8-20 17.6L111.2 448c-12.8-3.2-13.6-12-2.4-18.4l60-35.2c11.2-6.4 22.4-1.6 24 12l5.6 42.4z" fill="#FBD000" p-id="11350"></path><path d="M105.6 440.8l69.6-3.2 12.8 32.8z" fill="#F4B10B" p-id="11351"></path><path d="M184.8 472c-2.4 0-4.8 0-7.2-0.8L112 453.6c-12.8-3.2-15.2-10.4-16-14.4-0.8-4 0-11.2 11.2-17.6l58.4-34.4c4-2.4 8.8-4 13.6-4 11.2 0 20 8 21.6 20.8l5.6 40.8c0.8 8-0.8 14.4-4.8 19.2-4 5.6-9.6 8-16.8 8zM112 436.8c0.8 0.8 1.6 0.8 3.2 1.6l65.6 17.6c4 0.8 6.4 0.8 8-1.6 1.6-1.6 1.6-4 1.6-7.2l-5.6-40.8c0-2.4-1.6-7.2-6.4-7.2-1.6 0-3.2 0.8-5.6 1.6l-58.4 34.4c-0.8 0.8-1.6 1.6-2.4 1.6z" fill="#663210" p-id="11352"></path><path d="M772 600.8c-5.6-13.6 4-40.8 21.6-60l38.4-43.2c17.6-19.2 52-34.4 76-32.8 24 1.6 39.2 18.4 33.6 38.4-5.6 19.2-28.8 46.4-51.2 60l-66.4 39.2c-22.4 12.8-46.4 12-52-1.6z" fill="#AD5114" p-id="11353"></path><path d="M772 600.8c-5.6-13.6 4-40.8 21.6-60l38.4-43.2c17.6-19.2 52-34.4 76-32.8 24 1.6 39.2 18.4 33.6 38.4-5.6 19.2-28.8 46.4-51.2 60l-66.4 39.2c-22.4 12.8-46.4 12-52-1.6z" fill="#AD5114" p-id="11354"></path><path d="M896 529.6l-72 49.6c-20 14.4-41.6 17.6-53.6 10.4 0 4 0 8 1.6 11.2 5.6 13.6 29.6 13.6 52 0.8l66.4-39.2c22.4-13.6 46.4-40 51.2-60 2.4-8 0.8-15.2-2.4-21.6-9.6 18.4-26.4 37.6-43.2 48.8z" fill="#993F0D" p-id="11355"></path><path d="M792 619.2c-13.6 0-23.2-5.6-27.2-15.2-8-18.4 5.6-49.6 23.2-68.8l38.4-43.2c19.2-21.6 56-36.8 82.4-36 15.2 0.8 28.8 7.2 36 18.4 6.4 8.8 8 19.2 4.8 30.4-6.4 21.6-30.4 49.6-55.2 64l-66.4 39.2c-12 8-24.8 11.2-36 11.2z m112.8-146.4c-21.6 0-52 13.6-67.2 30.4l-38.4 43.2c-16.8 18.4-24 42.4-20 52 2.4 4.8 8.8 5.6 12.8 5.6 8 0 18.4-3.2 28-8.8l66.4-39.2c20.8-12 43.2-37.6 48-55.2 1.6-5.6 0.8-12-2.4-16.8-4.8-6.4-13.6-10.4-24-11.2h-3.2z" fill="#663210" p-id="11356"></path><path d="M790.4 616c-13.6 0-23.2-5.6-28-15.2-8-18.4 5.6-48.8 23.2-68l39.2-42.4c19.2-20.8 56.8-36.8 83.2-35.2 16 0.8 28.8 7.2 36.8 17.6 6.4 8.8 8 19.2 4.8 29.6-6.4 21.6-31.2 48.8-56 63.2l-67.2 38.4c-12 8-24.8 12-36 12z m114.4-144c-21.6 0-52 13.6-68 29.6L797.6 544c-16.8 17.6-24.8 41.6-20.8 51.2 2.4 4.8 8.8 5.6 12.8 5.6 8 0 18.4-3.2 28-8.8l67.2-38.4c21.6-12 43.2-36.8 48.8-54.4 1.6-5.6 0.8-11.2-2.4-16-4.8-6.4-13.6-10.4-24-11.2h-2.4z" fill="#663210" p-id="11357"></path><path d="M336 736c0-8.8-10.4-16-24-16H200.8c-13.6 0-24 7.2-24 16s-8.8 16-20 16-20 7.2-20 16 10.4 16 24 16h80c13.6 0 24-7.2 24-16s10.4-16 24-16h24c12.8 0 23.2-7.2 23.2-16zM768 816c-17.6 0-32-14.4-32-32s14.4-32 32-32 32 14.4 32 32-14.4 32-32 32z m0-48c-8.8 0-16 7.2-16 16s7.2 16 16 16 16-7.2 16-16-7.2-16-16-16zM384 208c-17.6 0-32-14.4-32-32s14.4-32 32-32 32 14.4 32 32-14.4 32-32 32z m0-48.8c-9.6 0-16.8 8-16.8 16.8 0 9.6 8 16.8 16.8 16.8 9.6 0 16.8-8 16.8-16.8 0-9.6-7.2-16.8-16.8-16.8z" fill="#FFFFFF" p-id="11358"></path><path d="M708.8 254.4s-58.4 246.4-102.4 296C561.6 600 485.6 604 436 560c-49.6-44.8-53.6-120.8-9.6-170.4 44-50.4 282.4-135.2 282.4-135.2z" fill="#AD5114" p-id="11359"></path><path d="M444 397.6C408 432 397.6 484 414.4 528c5.6 8.8 12.8 17.6 21.6 25.6 49.6 44.8 126.4 40 170.4-9.6 32-35.2 70.4-171.2 90.4-246.4-72 20.8-216.8 65.6-252.8 100z" fill="#993F0D" p-id="11360"></path><path d="M514.4 598.4c-31.2 0-61.6-11.2-84.8-32.8-25.6-23.2-40-54.4-42.4-88.8-1.6-34.4 9.6-67.2 32-92.8 44.8-50.4 272-132.8 281.6-136 2.4-0.8 5.6 0 8 1.6 2.4 1.6 3.2 4.8 2.4 8-2.4 10.4-58.4 247.2-103.2 297.6-23.2 27.2-57.6 43.2-93.6 43.2z m178.4-329.6C642.4 288 467.2 355.2 431.2 395.2c-20 22.4-29.6 51.2-28 80.8 1.6 29.6 14.4 57.6 36.8 77.6 20.8 18.4 46.4 28.8 74.4 28.8 32 0 61.6-13.6 83.2-37.6C632.8 504 680 321.6 692.8 268.8z" fill="#663210" p-id="11361"></path><path d="M350.4 456.8c11.2-20.8 57.6-36.8 104-34.4 45.6 1.6 144 28.8 217.6 60.8l11.2 4.8c73.6 32 125.6 82.4 115.2 112-10.4 29.6-85.6 92.8-176 108-92 15.2-238.4 4-282.4-139.2-12-39.2-0.8-90.4 10.4-112z" fill="#AD5114" p-id="11362"></path><path d="M798.4 592.8c-58.4 36-168.8 84.8-286.4 73.6-139.2-14.4-170.4-168-170.4-168s-1.6 1.6-4.8 4c-3.2 21.6-3.2 46.4 3.2 67.2C384 712 530.4 723.2 621.6 708c91.2-15.2 166.4-77.6 176-108 0.8-2.4 0.8-4.8 0.8-7.2z" fill="#993F0D" p-id="11363"></path><path d="M378.4 512c-14.4 0-28 0.8-41.6 2.4-1.6 18.4-0.8 37.6 4.8 54.4C384.8 712 531.2 723.2 622.4 708c20-3.2 39.2-8.8 57.6-16C643.2 588 522.4 512 378.4 512z" fill="#FF4848" p-id="11364"></path><path d="M513.6 665.6c-112-11.2-154.4-113.6-166.4-152.8-3.2 0-7.2 0.8-10.4 0.8-1.6 18.4-0.8 37.6 4.8 54.4 43.2 144 189.6 155.2 280.8 140 20-3.2 39.2-8.8 57.6-16-4.8-13.6-11.2-26.4-19.2-39.2-44.8 12-95.2 18.4-147.2 12.8z" fill="#E8372E" p-id="11365"></path><path d="M560.8 720c-68 0-188-19.2-227.2-148-12.8-40.8-1.6-93.6 10.4-116.8 12.8-23.2 61.6-40.8 111.2-38.4 47.2 1.6 145.6 28.8 220 60.8l11.2 4.8c68.8 29.6 132.8 82.4 120 120.8-12 34.4-90.4 96.8-182.4 112-20.8 3.2-42.4 4.8-63.2 4.8zM448 432c-44.8 0-81.6 16-89.6 30.4-11.2 20-20 68.8-9.6 104.8C385.6 686.4 497.6 704 560.8 704c20 0 40-1.6 60-4.8 88-14.4 160.8-75.2 170.4-101.6 7.2-22.4-36-69.6-111.2-101.6l-11.2-4.8c-72.8-31.2-169.6-57.6-214.4-60-2.4 0.8-4.8 0.8-6.4 0.8z" fill="#663210" p-id="11366"></path><path d="M780 319.2s-101.6 231.2-154.4 272C572.8 632 496.8 622.4 456 569.6c-40.8-52.8-31.2-128.8 21.6-169.6 52.8-40 302.4-80.8 302.4-80.8z" fill="#AD5114" p-id="11367" data-spm-anchor-id="a313x.7781069.0.i8"></path><path d="M169.881855 414.993073a125.6 125.6 0 1 0 248.989283-33.253225 125.6 125.6 0 1 0-248.989283 33.253225Z" fill="#AD5114" p-id="11368"></path><path d="M232.162527 406.652701a20 20 0 1 0 39.647975-5.295099 20 20 0 1 0-39.647975 5.295099Z" fill="#663210" p-id="11369"></path><path d="M466.4 864.8c0-3.2-3.2-6.4-8-7.2l-15.2-2.4c-4-0.8-8.8-4.8-8.8-8.8L432 832c-0.8-4-4-8-7.2-8s-6.4 3.2-7.2 8l-2.4 15.2c-0.8 4-4.8 8.8-8.8 8.8l-15.2 2.4c-4 0.8-8 4-8 7.2s3.2 6.4 8 7.2l15.2 2.4c4 0.8 8.8 4.8 8.8 8.8l2.4 15.2c0.8 4 4 8 7.2 8s6.4-3.2 7.2-8l2.4-16.8c0.8-4 4.8-8 8.8-8.8l14.4-0.8c5.6-1.6 8.8-4.8 8.8-8z" fill="#FFFFFF" p-id="11370"></path><path d="M418.4 382.4c-1.6-12.8-5.6-24.8-10.4-36 8 68-40 129.6-108 138.4-56 7.2-108-23.2-130.4-72v2.4c8.8 68.8 72 116.8 140.8 108 68.8-9.6 117.6-72.8 108-140.8z" fill="#993F0D" p-id="11371"></path><path d="M665.6 156c0-3.2-3.2-6.4-8-7.2l-15.2-2.4c-4-0.8-8.8-4.8-8.8-8.8l-2.4-15.2c-0.8-4-4-8-7.2-8s-6.4 3.2-7.2 8l-2.4 15.2c-0.8 4-4.8 8.8-8.8 8.8l-15.2 2.4c-4 0.8-8 4-8 7.2s3.2 6.4 8 7.2l15.2 2.4c4 0.8 8.8 4.8 8.8 8.8l2.4 15.2c0.8 4 4 8 7.2 8s6.4-3.2 7.2-8l2.4-16.8c0.8-4 4.8-8 8.8-8.8l14.4-0.8c5.6-1.6 8.8-4.8 8.8-7.2z" fill="#FFFFFF" p-id="11372"></path><path d="M551.2 624c-40 0-76-18.4-100.8-49.6-20.8-27.2-29.6-60.8-25.6-94.4 4-33.6 21.6-64 48-84.8 52.8-41.6 291.2-80.8 301.6-82.4 3.2-0.8 5.6 0.8 7.2 3.2 1.6 2.4 2.4 5.6 0.8 8-4 9.6-101.6 232.8-154.4 274.4-21.6 16-48.8 25.6-76.8 25.6z m212-293.6c-53.6 9.6-237.6 43.2-280 76.8-23.2 18.4-38.4 44.8-42.4 74.4-4 29.6 4 59.2 22.4 83.2 21.6 28 53.6 43.2 88 43.2 24.8 0 48-8 68-23.2 42.4-33.6 121.6-204.8 144-254.4zM292 528c-65.6 0-121.6-49.6-130.4-114.4-4.8-35.2 4.8-69.6 25.6-97.6 21.6-28 52.8-46.4 87.2-50.4 5.6-1.6 12-1.6 17.6-1.6 65.6 0 121.6 49.6 130.4 114.4 4.8 35.2-4.8 69.6-25.6 97.6-21.6 28-52.8 46.4-87.2 50.4-5.6 0.8-12 1.6-17.6 1.6z m0-248c-4.8 0-10.4 0-15.2 0.8-30.4 4-58.4 20-76.8 44.8-19.2 24.8-27.2 55.2-23.2 85.6 8 57.6 56.8 100.8 115.2 100.8 4.8 0 10.4 0 15.2-0.8 30.4-4 58.4-20 76.8-44.8 19.2-24.8 27.2-55.2 23.2-85.6-8-57.6-56.8-100.8-115.2-100.8z" fill="#663210" p-id="11373"></path><path d="M821.6 552c-1.6 0-4-0.8-5.6-2.4-3.2-3.2-3.2-8-0.8-11.2 5.6-5.6 52.8-56.8 85.6-58.4 4.8 0 8 3.2 8 8s-3.2 8-8 8c-22.4 0.8-61.6 39.2-74.4 53.6-0.8 1.6-3.2 2.4-4.8 2.4zM656 376c-3.2 0-6.4-2.4-8-5.6-0.8-4 1.6-8 5.6-8.8 41.6-8.8 80-17.6 80-17.6 4-0.8 8.8 1.6 9.6 5.6 0.8 4-1.6 8-5.6 8.8 0 0-39.2 8-80 17.6H656zM472 464c-0.8 0-2.4 0-3.2-0.8-4-1.6-6.4-6.4-4.8-10.4 16-39.2 75.2-60 108.8-68.8 4.8-0.8 8.8 1.6 10.4 5.6 1.6 4-1.6 8.8-5.6 9.6-52 13.6-88 35.2-97.6 59.2-0.8 4-4 5.6-8 5.6zM369.6 456c-1.6 0-3.2-0.8-4-1.6-3.2-2.4-4-7.2-2.4-11.2 11.2-17.6 16-38.4 12.8-59.2-3.2-28-20-52.8-44-65.6-4-1.6-4.8-6.4-3.2-10.4 1.6-4 6.4-5.6 10.4-3.2 28.8 15.2 48 44 52 77.6 3.2 24.8-2.4 49.6-15.2 70.4-1.6 1.6-4 3.2-6.4 3.2zM239.2 328c-2.4 0-4.8-0.8-5.6-3.2-2.4-3.2-1.6-8 1.6-10.4 12.8-9.6 28.8-16 44.8-18.4 4-0.8 8 2.4 8 6.4 0.8 4-2.4 8-6.4 8.8-13.6 1.6-26.4 7.2-37.6 15.2-1.6 0.8-3.2 1.6-4.8 1.6z" fill="#FFFFFF" opacity=".5" p-id="11374"></path></svg>